<svg viewBox="-60 0 512 512" xmlns="http://www.w3.org/2000/svg"><path d="m373.039062 142.125c-13.914062 0-344.195312 0-353.238281 0-10.9375 0-19.800781 8.867188-19.800781 19.800781v330.273438c0 10.933593 8.867188 19.800781 19.800781 19.800781h353.238281c10.933594 0 19.800782-8.863281 19.800782-19.800781v-330.273438c0-10.933593-8.867188-19.800781-19.800782-19.800781zm0 0" fill="#e0cea9"/><path d="m20.605469 492.199219v-330.273438c0-10.933593 8.863281-19.800781 19.800781-19.800781-11.910156 0-19.351562 0-20.605469 0-10.9375 0-19.800781 8.867188-19.800781 19.800781v330.273438c0 10.933593 8.867188 19.800781 19.800781 19.800781h20.605469c-10.9375 0-19.800781-8.863281-19.800781-19.800781zm0 0" fill="#bfa977"/><path d="m267.167969 0 2.0625 44.789062h-145.621094l2.0625-44.789062zm0 0" fill="#bfa977"/><path d="m146.273438 0h-20.601563l-2.0625 44.789062h22.664063zm0 0" fill="#a79162"/><path d="m307.113281 39.945312-39.945312-39.945312v165.917969h44.792969v-114.273438c0-4.386719-1.746094-8.597656-4.847657-11.699219zm0 0" fill="#e0cea9"/><path d="m287.773438 20.605469-20.605469-20.605469v165.917969h20.605469zm0 0" fill="#bfa977"/><path d="m80.878906 50.519531v115.402344h44.789063v-165.921875l-40.738281 40.738281c-2.59375 2.597657-4.050782 6.113281-4.050782 9.78125zm0 0" fill="#e0cea9"/><path d="m101.484375 24.1875-16.554687 16.550781c-2.59375 2.597657-4.050782 6.113281-4.050782 9.78125v115.402344h20.605469zm0 0" fill="#bfa977"/><path d="m130.671875 165.917969h-54.796875c-6.9375 0-12.617188 5.679687-12.617188 12.617187 0 6.941406 5.679688 12.617188 12.617188 12.617188h54.796875c6.9375 0 12.617187-5.675782 12.617187-12.617188 0-6.9375-5.679687-12.617187-12.617187-12.617187zm0 0" fill="#bfa977"/><path d="m83.59375 178.535156c0-6.9375 5.679688-12.613281 12.617188-12.613281h-20.332032c-6.941406 0-12.621094 5.675781-12.621094 12.613281 0 6.941406 5.679688 12.621094 12.621094 12.621094h20.332032c-6.941407-.003906-12.617188-5.679688-12.617188-12.621094zm0 0" fill="#a79162"/><path d="m161.097656 394.179688h-38.765625l12.285157-21.65625c10.195312 4.824218 22.007812-3.640626 20.296874-15.082032l-3.019531-20.1875c-.675781-9.851562-10.710937-15.867187-19.589843-12.375l-20.101563 7.894532c-10.898437 4.28125-12.324219 19.167968-2.425781 25.4375l-14.558594 25.660156c-9.867188 17.394531 2.679688 38.976562 22.703125 38.976562h43.175781c7.917969 0 14.335938-6.417968 14.335938-14.335937 0-7.914063-6.417969-14.332031-14.335938-14.332031zm0 0" fill="#49ae3a"/><path d="m297.636719 383.921875-20.300781-36.117187c-3.878907-6.902344-12.625-9.347657-19.519532-5.46875-6.902344 3.878906-9.351562 12.617187-5.46875 19.519531l18.171875 32.324219h-25.804687c-.171875-2.835938-1.179688-5.648438-3.082032-8.039063-4.929687-6.195313-13.949218-7.21875-20.140624-2.292969l-16.886719 13.4375c-4.6875 3.730469-5.761719 10.03125-5.410157 11.21875-.242187 2.726563 1.277344 7.90625 5.390626 11.199219l.011718.011719 16.886719 13.457031c6.183594 4.929687 15.203125 3.917969 20.140625-2.277344 1.90625-2.390625 2.914062-5.207031 3.089844-8.046875h30.195312c20.042969 0 32.550782-21.621094 22.726563-38.925781zm0 0" fill="#49ae3a"/><path d="m243.636719 272.917969c-2.925781-.441407-5.78125.039062-8.269531 1.222656l-16.25-28.644531c-9.945313-17.527344-35.367188-17.695313-45.445313.078125l-24.011719 42.953125c-3.863281 6.910156-1.390625 15.644531 5.519532 19.507812 6.90625 3.859375 15.640624 1.394532 19.503906-5.519531l20.125-36.003906c.714844-1.273438 2.542968-1.28125 3.261718-.011719l12.457032 21.957031c-10.003906 6.351563-8.320313 21.183594 2.816406 25.570313l19.699219 7.753906c8.976562 3.535156 18.933593-2.605469 19.601562-12.375l3.035157-20.183594c1.179687-7.828125-4.210938-15.128906-12.042969-16.304687zm0 0" fill="#49ae3a"/><g fill="#1d9942"><path d="m117.148438 383.871094 12.964843-22.855469c.839844-1.476563.609375-3.359375-.621093-4.527344-7.789063-7.375-4.808594-20 5.027343-23.867187l12.703125-4.988282c-3.886718-3.507812-9.605468-4.84375-14.917968-2.753906l-19.707032 7.742188c-11.125 4.367187-12.882812 19.21875-2.820312 25.589844l-14.554688 25.660156c-9.867187 17.394531 2.679688 38.976562 22.699219 38.976562h21.929687c-20.023437 0-32.570312-21.582031-22.703124-38.976562zm0 0"/><path d="m287.722656 385.777344-13.449218-23.921875c-3.011719-5.355469-2.199219-11.804688 1.535156-16.246094-4.34375-5.179687-11.890625-6.707031-17.992188-3.273437-6.902344 3.878906-9.351562 12.617187-5.46875 19.519531l18.171875 32.324219h12.289063c4.3125 0 7.027344-4.644532 4.914062-8.402344zm0 0"/><path d="m226.523438 419.714844-.011719-.011719c-4.113281-3.292969-5.628907-8.472656-5.390625-11.199219-.351563-1.191406.726562-7.488281 5.410156-11.21875l14.652344-11.65625c-5.011719-5.722656-13.675782-6.566406-19.691406-1.78125l-16.886719 13.4375c-4.6875 3.730469-5.761719 10.027344-5.410157 11.21875-.242187 2.726563 1.277344 7.90625 5.390626 11.199219l.007812.011719 16.886719 13.457031c6.011719 4.789063 14.683593 3.957031 19.703125-1.777344zm0 0"/><path d="m171.589844 288.53125 24.007812-42.957031c2.902344-5.113281 7.074219-8.734375 11.78125-10.890625-11.601562-5.308594-26.539062-1.753906-33.707031 10.890625l-24.011719 42.957031c-3.859375 6.90625-1.390625 15.640625 5.519532 19.503906 6.101562 3.410156 13.625 1.875 17.960937-3.292968-3.722656-4.429688-4.542969-10.863282-1.550781-16.210938zm0 0"/><path d="m235.273438 314.027344c-9.394532-3.699219-12.671876-15.523438-5.746094-23.117188 1.605468-1.757812 1.859375-4.363281.699218-6.441406l-8.691406-15.550781c-4.121094-7.375-13.761718-9.488281-20.589844-4.511719l-2.875 2.09375 12.457032 21.957031c-10.003906 6.351563-8.320313 21.1875 2.816406 25.570313l19.699219 7.757812c5.363281 2.109375 11.0625.75 14.933593-2.753906zm0 0"/></g><path d="m316.960938 165.917969h-54.796876c-6.9375 0-12.617187 5.679687-12.617187 12.617187 0 6.941406 5.679687 12.617188 12.617187 12.617188h54.796876c6.941406 0 12.617187-5.675782 12.617187-12.617188 0-6.9375-5.675781-12.617187-12.617187-12.617187zm0 0" fill="#bfa977"/><path d="m269.882812 178.535156c0-6.9375 5.679688-12.613281 12.621094-12.613281h-20.335937c-6.941407 0-12.617188 5.675781-12.617188 12.613281 0 6.941406 5.675781 12.621094 12.617188 12.621094h20.335937c-6.941406-.003906-12.621094-5.679688-12.621094-12.621094zm0 0" fill="#a79162"/></svg>