<?xml version="1.0" encoding="iso-8859-1"?>
<!-- Generator: Adobe Illustrator 21.0.0, SVG Export Plug-In . SVG Version: 6.00 Build 0)  -->
<svg xmlns="http://www.w3.org/2000/svg" xmlns:xlink="http://www.w3.org/1999/xlink" version="1.1" id="Capa_1" x="0px" y="0px" viewBox="0 0 512.09 512.09" style="enable-background:new 0 0 512.09 512.09;" xml:space="preserve" width="512" height="512">
<g>
	<path style="fill:#78777E;" d="M354.045,0.002H158.044c-20.678,0-37.5,16.822-37.5,37.5V474.59c0,20.678,16.822,37.5,37.5,37.5   h196.001c20.678,0,37.5-16.822,37.5-37.5V37.502C391.545,16.824,374.723,0.002,354.045,0.002z"/>
	<path style="fill:#57565C;" d="M354.045,0.002h-28.57c20.678,0,37.5,16.822,37.5,37.5V474.59c0,20.678-16.822,37.5-37.5,37.5h28.57   c20.678,0,37.5-16.822,37.5-37.5V37.502C391.545,16.824,374.723,0.002,354.045,0.002z"/>
	<path style="fill:#66BAEA;" d="M345.536,484.557H166.554c-9.632,0-17.44-7.808-17.44-17.44V44.975c0-9.632,7.808-17.44,17.44-17.44   h178.982c9.632,0,17.44,7.808,17.44,17.44v422.142C362.976,476.749,355.168,484.557,345.536,484.557z"/>
	<path style="fill:#3AAAE4;" d="M345.536,27.535h-27c9.632,0,17.44,7.808,17.44,17.44v422.142c0,9.632-7.808,17.44-17.44,17.44h27   c9.632,0,17.44-7.808,17.44-17.44V44.975C362.976,35.343,355.168,27.535,345.536,27.535z"/>
	<path style="fill:#67676B;" d="M286.864,478.475h-61.639c-4.142,0-7.5-3.358-7.5-7.5c0-4.142,3.358-7.5,7.5-7.5h61.639   c4.142,0,7.5,3.358,7.5,7.5C294.364,475.117,291.006,478.475,286.864,478.475z"/>
	<path style="fill:#78777E;" d="M323.863,3.178C322.457,1.186,320.171,0,317.733,0H194.357c-2.439,0-4.725,1.186-6.13,3.178   c-1.405,1.993-1.753,4.544-0.934,6.841c6.446,18.073,23.669,30.216,42.857,30.216h51.791c19.188,0,36.411-12.142,42.857-30.216   C325.616,7.723,325.268,5.171,323.863,3.178z"/>
</g>















</svg>
